<svg xmlns="http://www.w3.org/2000/svg" viewBox="0 0 512 512">
  <defs>
    <linearGradient id="wiz-bg" x1="0%" y1="0%" x2="100%" y2="100%">
      <stop offset="0%" stop-color="#2d1b4e"/>
      <stop offset="100%" stop-color="#1a0f2e"/>
    </linearGradient>
  </defs>
  <rect width="512" height="512" rx="96" fill="url(#wiz-bg)"/>
  <circle cx="256" cy="256" r="160" fill="none" stroke="#d4af37" stroke-width="6" opacity="0.4"/>
  <ellipse cx="200" cy="220" rx="52" ry="36" fill="none" stroke="#f5e6c8" stroke-width="10"/>
  <ellipse cx="312" cy="220" rx="52" ry="36" fill="none" stroke="#f5e6c8" stroke-width="10"/>
  <line x1="252" y1="220" x2="260" y2="220" stroke="#f5e6c8" stroke-width="8" stroke-linecap="round"/>
  <path d="M256 168 L272 208 L240 208 Z" fill="#d4af37"/>
  <rect x="156" y="248" width="200" height="160" rx="16" fill="#740001" stroke="#d4af37" stroke-width="6"/>
  <rect x="156" y="248" width="200" height="44" rx="16" fill="#5c0000"/>
  <rect x="180" y="308" width="44" height="36" rx="4" fill="#d4af37"/>
  <rect x="244" y="308" width="44" height="36" rx="4" fill="#8b0000"/>
  <rect x="308" y="308" width="44" height="36" rx="4" fill="#8b0000"/>
  <rect x="180" y="356" width="44" height="36" rx="4" fill="#8b0000"/>
  <rect x="244" y="356" width="44" height="36" rx="4" fill="#d4af37" opacity="0.6"/>
  <rect x="308" y="356" width="44" height="36" rx="4" fill="#8b0000"/>
  <polygon points="380,120 392,148 420,148 398,166 406,194 380,178 354,194 362,166 340,148 368,148" fill="#d4af37" opacity="0.9"/>
  <polygon points="132,380 140,400 160,400 144,412 150,432 132,420 114,432 120,412 104,400 124,400" fill="#d4af37" opacity="0.7"/>
</svg>
