<svg xmlns="http://www.w3.org/2000/svg" viewBox="0 0 512 512">
  <rect width="512" height="512" rx="96" fill="#0f172a"/>
  <rect x="96" y="112" width="320" height="288" rx="24" fill="#1e293b" stroke="#334155" stroke-width="4"/>
  <rect x="96" y="112" width="320" height="56" rx="24" fill="#334155"/>
  <rect x="128" y="128" width="40" height="24" rx="6" fill="#64748b"/>
  <rect x="344" y="128" width="40" height="24" rx="6" fill="#64748b"/>
  <rect x="128" y="192" width="64" height="48" rx="8" fill="#475569"/>
  <rect x="224" y="192" width="64" height="48" rx="8" fill="#475569"/>
  <rect x="320" y="192" width="64" height="48" rx="8" fill="#475569"/>
  <rect x="128" y="256" width="64" height="48" rx="8" fill="#6366f1"/>
  <rect x="224" y="256" width="64" height="48" rx="8" fill="#312e81"/>
  <rect x="320" y="256" width="64" height="48" rx="8" fill="#312e81"/>
  <rect x="128" y="320" width="64" height="48" rx="8" fill="#312e81"/>
  <rect x="224" y="320" width="64" height="48" rx="8" fill="#312e81"/>
  <rect x="320" y="320" width="64" height="48" rx="8" fill="#312e81"/>
  <circle cx="256" cy="380" r="6" fill="#818cf8"/>
</svg>
