<svg xmlns="http://www.w3.org/2000/svg" viewBox="0 0 512 512">
  <rect width="512" height="512" rx="96" fill="#4f46e5"/>
  <path
    d="M256 88 L392 140 V248 C392 340 332 396 256 424 C180 396 120 340 120 248 V140 Z"
    fill="#ffffff"
  />
  <rect x="168" y="168" width="176" height="140" rx="16" fill="#eef2ff"/>
  <rect x="168" y="168" width="176" height="36" rx="16" fill="#c7d2fe"/>
  <rect x="184" y="220" width="48" height="36" rx="6" fill="#818cf8"/>
  <rect x="248" y="220" width="48" height="36" rx="6" fill="#c7d2fe"/>
  <rect x="312" y="220" width="32" height="36" rx="6" fill="#c7d2fe"/>
  <rect x="184" y="268" width="48" height="36" rx="6" fill="#c7d2fe"/>
  <rect x="248" y="268" width="48" height="36" rx="6" fill="#4f46e5"/>
  <path
    d="M220 320 L244 348 L296 288"
    fill="none"
    stroke="#4f46e5"
    stroke-width="14"
    stroke-linecap="round"
    stroke-linejoin="round"
  />
</svg>
