<svg xmlns="http://www.w3.org/2000/svg" viewBox="0 0 512 512">
  <rect width="512" height="512" rx="96" fill="#ffffff"/>
  <circle cx="180" cy="200" r="88" fill="#4285f4" opacity="0.92"/>
  <circle cx="332" cy="200" r="88" fill="#ea4335" opacity="0.92"/>
  <circle cx="180" cy="340" r="88" fill="#fbbc04" opacity="0.92"/>
  <circle cx="332" cy="340" r="88" fill="#34a853" opacity="0.92"/>
  <rect x="156" y="156" width="200" height="200" rx="24" fill="#ffffff" stroke="#e8eaed" stroke-width="4"/>
  <rect x="156" y="156" width="200" height="48" rx="24" fill="#f1f3f4"/>
  <rect x="180" y="224" width="40" height="36" rx="6" fill="#4285f4"/>
  <rect x="236" y="224" width="40" height="36" rx="6" fill="#e8eaed"/>
  <rect x="292" y="224" width="40" height="36" rx="6" fill="#e8eaed"/>
  <rect x="180" y="276" width="40" height="36" rx="6" fill="#e8eaed"/>
  <rect x="236" y="276" width="40" height="36" rx="6" fill="#34a853"/>
  <rect x="292" y="276" width="40" height="36" rx="6" fill="#e8eaed"/>
  <rect x="180" y="328" width="40" height="36" rx="6" fill="#e8eaed"/>
  <rect x="236" y="328" width="40" height="36" rx="6" fill="#e8eaed"/>
  <rect x="292" y="328" width="40" height="36" rx="6" fill="#e8eaed"/>
</svg>
