<svg xmlns="http://www.w3.org/2000/svg" viewBox="0 0 512 512">
  <defs>
    <linearGradient id="vice-sky" x1="0%" y1="0%" x2="0%" y2="100%">
      <stop offset="0%" stop-color="#ff6ad5"/>
      <stop offset="45%" stop-color="#c850c0"/>
      <stop offset="100%" stop-color="#4158d0"/>
    </linearGradient>
    <linearGradient id="vice-sun" x1="0%" y1="0%" x2="0%" y2="100%">
      <stop offset="0%" stop-color="#ffeb3b"/>
      <stop offset="100%" stop-color="#ff9800"/>
    </linearGradient>
  </defs>
  <rect width="512" height="512" rx="96" fill="url(#vice-sky)"/>
  <circle cx="256" cy="200" r="72" fill="url(#vice-sun)"/>
  <path d="M80 320 Q256 260 432 320 L432 400 L80 400 Z" fill="#1a0a2e" opacity="0.5"/>
  <rect x="108" y="168" width="296" height="248" rx="8" fill="#0d0221" stroke="#00f5d4" stroke-width="10"/>
  <rect x="108" y="168" width="296" height="56" fill="#ff006e" opacity="0.9"/>
  <rect x="136" y="248" width="64" height="48" fill="#00f5d4"/>
  <rect x="224" y="248" width="64" height="48" fill="#8338ec"/>
  <rect x="312" y="248" width="64" height="48" fill="#ffbe0b"/>
  <rect x="136" y="312" width="64" height="48" fill="#3a86ff"/>
  <rect x="224" y="312" width="64" height="48" fill="#ff006e"/>
  <rect x="312" y="312" width="64" height="48" fill="#00f5d4"/>
  <rect x="136" y="376" width="64" height="40" fill="#8338ec"/>
  <rect x="224" y="376" width="64" height="40" fill="#ffbe0b"/>
  <rect x="312" y="376" width="64" height="40" fill="#3a86ff"/>
</svg>
